<svg width="100" height="100" viewBox="0 0 100 100" fill="none" xmlns="http://www.w3.org/2000/svg">
<rect width="100" height="100" rx="24" fill="#D8F0FF"/>
<path d="M68.2489 39.055C71.0339 33.522 72.4619 29.755 72.4619 27.88C72.4619 25.8511 71.6559 23.9053 70.2213 22.4706C68.7866 21.036 66.8408 20.23 64.8119 20.23C62.783 20.23 60.8372 21.036 59.4025 22.4706C57.9679 23.9053 57.1619 25.8511 57.1619 27.88C57.3092 29.5264 57.7366 31.1355 58.4259 32.638C55.8684 31.7542 53.1818 31.3017 50.4759 31.299C46.244 31.2933 42.085 32.4003 38.4159 34.509C38.024 32.6029 36.9389 30.9099 35.3706 29.7579C33.8023 28.6058 31.8624 28.0765 29.9263 28.2725C27.9902 28.4686 26.1957 29.3759 24.8901 30.8189C23.5845 32.2619 22.8608 34.138 22.8589 36.084C22.8589 38.042 24.3929 42.063 27.3959 48.01C25.4157 53.9879 25.8529 60.5032 28.6139 66.163C30.1939 69.4021 32.4633 72.2565 35.2629 74.526C40.0443 78.3883 46.1126 80.2933 52.2436 79.8566C58.3745 79.4199 64.1116 76.6741 68.2973 72.1731C72.483 67.672 74.8057 61.7509 74.7967 55.6045C74.7877 49.458 72.4477 43.5437 68.2489 39.055ZM64.8069 22.572C66.2159 22.5717 67.5675 23.1304 68.5651 24.1256C69.5627 25.1207 70.1247 26.4709 70.1279 27.88C70.1279 28.597 69.7069 31.086 65.8089 38.717C65.4459 39.431 65.1089 40.085 64.8089 40.641C64.5729 40.194 64.3039 39.679 64.0199 39.125C63.2929 37.709 62.4499 36.009 61.6899 34.325C59.7819 30.157 59.4999 28.5 59.4999 27.88C59.5015 26.4729 60.0611 25.1238 61.056 24.1288C62.0508 23.1337 63.3998 22.5738 64.8069 22.572ZM54.0699 33.955C56.0317 34.2644 57.9409 34.8449 59.7429 35.68C59.7849 35.772 59.8279 35.863 59.8709 35.955C59.9039 36.028 59.9379 36.101 59.9709 36.174C60.0549 36.354 60.1389 36.533 60.2229 36.711C60.2589 36.786 60.2929 36.859 60.3289 36.933C60.4139 37.112 60.4989 37.289 60.5839 37.466C60.6189 37.537 60.6529 37.609 60.6839 37.68L60.9429 38.209L61.0429 38.409L61.2989 38.924L61.3989 39.124C61.4789 39.284 61.5579 39.44 61.6359 39.595L61.7429 39.806C61.8219 39.961 61.8989 40.106 61.9759 40.26L62.0759 40.448C62.1539 40.599 62.2289 40.748 62.3039 40.887C62.3309 40.94 62.3589 40.994 62.3859 41.045L62.6079 41.469L62.6779 41.601L62.8779 41.981L62.9439 42.106C63.0059 42.223 63.0639 42.331 63.1209 42.437L63.1829 42.554L63.3579 42.879L63.3799 42.92L63.5349 43.206L63.5489 43.231L63.6549 43.431L63.6769 43.471L63.7179 43.545L63.7859 43.669C63.8869 43.8505 64.0345 44.0017 64.2134 44.1072C64.3924 44.2127 64.5962 44.2685 64.8039 44.269C65.0116 44.2685 65.2154 44.2127 65.3944 44.1072C65.5733 44.0017 65.7209 43.8505 65.8219 43.669C65.8279 43.657 65.8689 43.583 65.9219 43.483L65.9349 43.46C66.0249 43.297 66.1649 43.041 66.3489 42.703L66.3929 42.62C66.4389 42.535 66.4929 42.443 66.5389 42.348L66.6479 42.148C66.7019 42.048 66.7569 41.948 66.8149 41.835C66.8639 41.744 66.9149 41.647 66.9659 41.55C67.0169 41.453 67.0609 41.371 67.1119 41.273L67.1189 41.259C67.7477 41.9961 68.3273 42.7737 68.8539 43.587C68.8539 43.614 68.8489 43.64 68.8539 43.667C68.935 43.9261 68.9366 44.2036 68.8585 44.4636C68.7805 44.7237 68.6263 44.9544 68.4159 45.126C66.9539 46.42 63.1399 46.469 61.7899 46.001C61.3259 45.84 61.1749 45.621 60.7699 44.951C60.1159 43.873 59.1289 42.244 55.6969 40.597C55.2146 40.3972 54.7799 40.098 54.421 39.7189C54.0621 39.3398 53.7871 38.8894 53.6139 38.397C53.2679 36.9068 53.4284 35.3438 54.0699 33.955ZM25.1929 36.084C25.1929 34.6187 25.775 33.2134 26.8111 32.1772C27.8473 31.1411 29.2526 30.559 30.7179 30.559C32.1832 30.559 33.5885 31.1411 34.6247 32.1772C35.6608 33.2134 36.2429 34.6187 36.2429 36.084C36.2413 36.1935 36.232 36.3028 36.2149 36.411C35.9199 39.085 32.7419 45.544 30.7219 49.362C30.4219 48.79 30.0639 48.114 29.6859 47.373C25.6309 39.407 25.1929 36.824 25.1929 36.084ZM28.5069 55.6C28.5063 54.0698 28.6642 52.5437 28.9779 51.046C29.0089 51.102 29.0319 51.146 29.0599 51.197L29.1419 51.349C29.2129 51.479 29.2779 51.6 29.3419 51.707L29.3629 51.747C29.5739 52.134 29.7069 52.372 29.7099 52.378C29.8109 52.5595 29.9585 52.7108 30.1374 52.8162C30.3164 52.9217 30.5202 52.9775 30.7279 52.978C30.9357 52.9779 31.1397 52.9223 31.3187 52.8168C31.4977 52.7113 31.6452 52.5597 31.7459 52.378C31.7619 52.35 31.8019 52.278 31.8589 52.178L31.8739 52.151L32.0739 51.781L32.2249 51.502L32.3979 51.182L32.5869 50.828C32.6579 50.695 32.7249 50.57 32.8019 50.428C32.8789 50.286 32.9789 50.091 33.0709 49.916L33.2629 49.549C33.3769 49.331 33.4959 49.099 33.6159 48.864L33.7759 48.554C33.9149 48.283 34.0569 48 34.2019 47.712C34.2409 47.633 34.2789 47.558 34.3189 47.479C34.4756 47.1636 34.6346 46.8413 34.7959 46.512L34.8879 46.325C35.0559 45.9796 35.2226 45.6303 35.3879 45.277C35.4129 45.226 35.4369 45.177 35.4609 45.124C35.6319 44.761 35.7999 44.398 35.9669 44.031L36.0309 43.892C36.1999 43.519 36.3629 43.149 36.5239 42.778L36.5769 42.657C36.7359 42.29 36.8869 41.927 37.0339 41.567L37.0919 41.424C37.2329 41.076 37.3649 40.736 37.4919 40.401C37.5149 40.341 37.5359 40.282 37.5579 40.222C37.6739 39.908 37.7816 39.6026 37.8809 39.306C37.9079 39.225 37.9329 39.146 37.9589 39.066C38.0449 38.7993 38.1226 38.542 38.1919 38.294C38.2219 38.187 38.2479 38.084 38.2749 37.981C38.2919 37.915 38.3119 37.845 38.3269 37.781C42.2149 38.522 44.4919 40.358 44.8919 43.152C45.3459 46.331 43.2919 49.63 42.0049 50.208C39.1809 51.479 38.7719 52.169 37.7899 54.367C37.5009 55.013 37.1409 55.817 36.5989 56.86C35.1259 59.693 30.7789 60.205 29.0389 60.297C28.6904 58.7555 28.512 57.1804 28.5069 55.6ZM50.4779 77.587C49.0487 77.581 47.6235 77.4346 46.2229 77.15C45.3289 75.743 42.9299 71.385 45.9389 69.195C47.3239 68.183 48.4679 67.264 49.4289 66.405C50.5979 68.739 51.6149 70.582 51.6289 70.605C51.73 70.7868 51.8779 70.9384 52.0572 71.0439C52.2365 71.1494 52.4408 71.205 52.6489 71.205C52.8569 71.2049 53.0612 71.1492 53.2405 71.0437C53.4198 70.9382 53.5677 70.7868 53.6689 70.605C54.2539 69.554 59.2489 60.462 59.4979 56.897C60.3777 57.4585 61.214 58.0852 61.9999 58.772C63.1999 59.772 64.2819 60.666 65.3089 60.666C65.6486 60.6649 65.9806 60.5644 66.2639 60.377C67.5889 59.523 71.2099 58.563 71.9329 59.462C71.9774 59.5067 72.026 59.5472 72.0779 59.583C71.144 64.6328 68.4734 69.1969 64.5286 72.485C60.5838 75.773 55.6133 77.5779 50.4779 77.587ZM48.0999 56.619C48.0968 55.5178 48.4941 54.453 49.2178 53.623C49.9415 52.793 50.9423 52.2544 52.0337 52.1076C53.1251 51.9608 54.2326 52.2157 55.15 52.8249C56.0673 53.4342 56.7319 54.3561 57.0199 55.419C57.1368 55.8081 57.1938 56.2127 57.1889 56.619C57.1889 58.385 54.7159 63.661 52.6539 67.576C52.1369 66.592 51.4819 65.314 50.8299 63.964C48.3639 58.872 48.0999 57.131 48.0999 56.619ZM65.2309 58.28C64.6162 57.897 64.0354 57.4621 63.4949 56.98C62.1896 55.7614 60.6727 54.7915 59.0189 54.118C58.9659 53.98 58.9279 53.835 58.8669 53.702C58.7769 53.502 58.6599 53.33 58.5529 53.146C58.4729 53.009 58.4059 52.863 58.3169 52.733C58.1909 52.548 58.0409 52.383 57.8979 52.212C57.8049 52.102 57.7239 51.98 57.6249 51.876C57.4601 51.7121 57.2872 51.5565 57.1069 51.41C57.0069 51.323 56.9139 51.224 56.8069 51.143C56.6134 51.0044 56.4132 50.8756 56.2069 50.757C56.0969 50.69 55.9959 50.61 55.8829 50.549C55.6619 50.4366 55.4349 50.3364 55.2029 50.249C55.0899 50.203 54.9849 50.143 54.8699 50.104C54.6033 50.0189 54.3318 49.9501 54.0569 49.898C53.9649 49.878 53.8779 49.844 53.7849 49.829C52.7984 49.6632 51.7876 49.7146 50.8229 49.9795C49.8583 50.2444 48.963 50.7164 48.1994 51.3627C47.4358 52.009 46.8224 52.814 46.4017 53.7216C45.9811 54.6292 45.7634 55.6176 45.7639 56.618C45.7639 57.148 45.7709 58.718 48.3639 64.213C47.1625 65.3223 45.8934 66.356 44.5639 67.308C41.4999 69.539 41.7079 73.134 43.1099 76.291C39.9855 75.1625 37.1554 73.345 34.8294 70.9733C32.5035 68.6017 30.7414 65.7367 29.6739 62.591C32.0649 62.4 36.7829 61.56 38.6739 57.933C39.2479 56.833 39.6239 55.99 39.9249 55.315C40.7429 53.486 40.8249 53.295 42.9679 52.333C45.3999 51.238 47.7819 46.844 47.2069 42.819C46.9189 40.804 45.6469 37.519 40.6879 35.953C43.7293 34.4274 47.0853 33.6339 50.4879 33.636C50.8879 33.636 51.2879 33.679 51.6879 33.7C51.0267 35.4311 50.9318 37.3275 51.4169 39.116C51.6837 39.9085 52.113 40.6366 52.6773 41.2537C53.2415 41.8708 53.9284 42.3634 54.6939 42.7C57.4999 44.045 58.2109 45.217 58.7809 46.158C59.2378 47.105 60.045 47.8372 61.0319 48.2C62.0125 48.4869 63.0314 48.6218 64.0529 48.6C66.1039 48.6 68.5179 48.155 69.9699 46.868C70.1367 46.7179 70.2906 46.554 70.4299 46.378C71.7706 49.2674 72.4641 52.4147 72.4619 55.6C72.4619 56.086 72.4199 56.563 72.3879 57.042C70.0549 56.2 66.5169 57.557 65.2309 58.28Z" fill="#61C0FF"/>
<path d="M69.0708 27.952C69.0718 27.1149 68.8246 26.2964 68.3603 25.5999C67.8961 24.9033 67.2357 24.3601 66.4627 24.0389C65.6898 23.7177 64.8389 23.633 64.0177 23.7954C63.1966 23.9578 62.4421 24.3601 61.8495 24.9513C61.257 25.5426 60.8532 26.2963 60.689 27.1171C60.5249 27.9379 60.6078 28.7889 60.9273 29.5626C61.2469 30.3362 61.7887 30.9977 62.4842 31.4635C63.1798 31.9292 63.9978 32.1782 64.8348 32.179C65.9563 32.1777 67.0316 31.7322 67.8255 30.94C68.6194 30.1478 69.0671 29.0735 69.0708 27.952ZM62.7708 27.952C62.7696 27.5431 62.8899 27.1431 63.1163 26.8026C63.3427 26.4621 63.6651 26.1965 64.0426 26.0394C64.4201 25.8823 64.8357 25.8409 65.2368 25.9203C65.6379 25.9997 66.0064 26.1964 66.2956 26.4854C66.5848 26.7745 66.7817 27.1429 66.8613 27.544C66.9409 27.945 66.8997 28.3607 66.7428 28.7383C66.5859 29.1159 66.3204 29.4384 65.9801 29.665C65.6397 29.8915 65.2397 30.012 64.8308 30.011C64.286 30.0078 63.7644 29.7898 63.3794 29.4042C62.9945 29.0187 62.7772 28.4968 62.7748 27.952H62.7708ZM56.2728 56.614C56.2689 55.8774 56.0461 55.1587 55.6328 54.549C55.2794 54.0352 54.8004 53.6205 54.2414 53.3443C53.6824 53.0681 53.062 52.9395 52.4393 52.9709C51.8165 53.0023 51.2122 53.1925 50.6838 53.5236C50.1553 53.8546 49.7205 54.3154 49.4205 54.8621C49.1206 55.4087 48.9656 56.0231 48.9702 56.6466C48.9749 57.2701 49.1391 57.882 49.4472 58.4242C49.7552 58.9663 50.197 59.4205 50.7303 59.7436C51.2636 60.0667 51.8707 60.2479 52.4938 60.27H52.6268C53.5948 60.2676 54.5223 59.8813 55.2058 59.1959C55.8894 58.5105 56.2731 57.582 56.2728 56.614ZM52.6268 58.222H52.5468C52.3363 58.2167 52.1288 58.17 51.9362 58.0846C51.7437 57.9992 51.5699 57.8766 51.4247 57.724C51.1315 57.4158 50.9727 57.0037 50.9833 56.5785C50.9939 56.1532 51.173 55.7496 51.4813 55.4563C51.7895 55.1631 52.2016 55.0044 52.6268 55.015C52.8838 55.0143 53.1371 55.076 53.365 55.1945C53.593 55.3131 53.7889 55.4852 53.9358 55.696C54.1209 55.9663 54.2215 56.2854 54.2248 56.613C54.2259 57.0381 54.0582 57.4463 53.7586 57.748C53.459 58.0497 53.052 58.2201 52.6268 58.222ZM35.2268 36.118C35.2258 35.235 34.963 34.3722 34.4717 33.6386C33.9803 32.9051 33.2824 32.3337 32.4663 31.9968C31.6501 31.6598 30.7524 31.5725 29.8867 31.7458C29.0209 31.9191 28.226 32.3452 27.6024 32.9703C26.9789 33.5954 26.5547 34.3914 26.3835 35.2576C26.2123 36.1238 26.3019 37.0213 26.6408 37.8366C26.9798 38.6519 27.5529 39.3483 28.2877 39.8379C29.0224 40.3275 29.8859 40.5882 30.7688 40.587C31.355 40.5863 31.9353 40.4702 32.4766 40.2452C33.0179 40.0203 33.5096 39.6909 33.9235 39.2759C34.3375 38.8609 34.6657 38.3684 34.8893 37.8266C35.1129 37.2847 35.2276 36.7041 35.2268 36.118ZM28.5268 36.118C28.5278 35.6764 28.6596 35.2449 28.9056 34.8782C29.1515 34.5114 29.5006 34.2257 29.9088 34.0572C30.317 33.8886 30.766 33.8448 31.1991 33.9312C31.6322 34.0176 32.0299 34.2303 32.3422 34.5426C32.6545 34.8549 32.8672 35.2526 32.9536 35.6857C33.04 36.1188 32.9962 36.5678 32.8276 36.976C32.6591 37.3842 32.3734 37.7333 32.0066 37.9792C31.6399 38.2252 31.2084 38.357 30.7668 38.358C30.4727 38.3581 30.1815 38.3002 29.9098 38.1877C29.638 38.0751 29.3912 37.9101 29.1833 37.7021C28.9755 37.494 28.8106 37.247 28.6983 36.9752C28.586 36.7034 28.5284 36.4121 28.5288 36.118H28.5268ZM45.5998 25.021C45.657 25.0341 45.7152 25.0421 45.7738 25.045C45.8985 25.045 46.0199 25.0053 46.1205 24.9318C46.2212 24.8583 46.2959 24.7547 46.3338 24.636C46.3789 24.4894 46.3642 24.331 46.2929 24.1953C46.2217 24.0595 46.0997 23.9574 45.9535 23.9112C45.8073 23.865 45.6488 23.8785 45.5125 23.9487C45.3762 24.0189 45.2731 24.1401 45.2258 24.286C45.2021 24.3588 45.193 24.4356 45.1989 24.5119C45.2049 24.5883 45.2258 24.6627 45.2606 24.731C45.2953 24.7992 45.3431 24.86 45.4013 24.9097C45.4596 24.9595 45.527 24.9973 45.5998 25.021ZM49.0658 25.979H49.1598C49.298 25.9791 49.4317 25.9296 49.5365 25.8395C49.6413 25.7494 49.7102 25.6246 49.7308 25.488C49.7527 25.335 49.7136 25.1796 49.6219 25.0552C49.5303 24.9308 49.3934 24.8474 49.2408 24.823C49.1649 24.8111 49.0874 24.8143 49.0128 24.8325C48.9382 24.8508 48.8679 24.8836 48.8061 24.9292C48.7442 24.9748 48.692 25.0322 48.6525 25.098C48.613 25.1639 48.5869 25.237 48.5758 25.313C48.5537 25.4661 48.5926 25.6218 48.6843 25.7464C48.776 25.871 48.9131 25.9546 49.0658 25.979ZM52.5668 25.535C52.6557 25.5378 52.7439 25.5179 52.8228 25.477C52.892 25.445 52.954 25.3995 53.0052 25.343C53.0563 25.2866 53.0956 25.2204 53.1206 25.1484C53.1456 25.0764 53.1559 25.0002 53.1508 24.9242C53.1456 24.8481 53.1253 24.7739 53.0908 24.706C53.0588 24.637 53.0135 24.5751 52.9574 24.5237C52.9014 24.4724 52.8358 24.4326 52.7643 24.4066C52.6929 24.3807 52.617 24.3692 52.541 24.3727C52.4651 24.3761 52.3906 24.3946 52.3218 24.427C52.181 24.4933 52.0723 24.6128 52.0196 24.7593C51.9669 24.9057 51.9746 25.0671 52.0408 25.208C52.0883 25.3069 52.163 25.3903 52.2561 25.4482C52.3493 25.5061 52.4571 25.5362 52.5668 25.535ZM37.0708 28.5C37.1201 28.5134 37.1708 28.5211 37.2218 28.523C37.3319 28.5245 37.4402 28.495 37.5343 28.4379C37.6284 28.3808 37.7046 28.2984 37.7541 28.2001C37.8036 28.1018 37.8245 27.9916 37.8144 27.882C37.8042 27.7724 37.7635 27.6678 37.6968 27.5803C37.6301 27.4927 37.5401 27.4257 37.4371 27.3868C37.3341 27.348 37.2223 27.3388 37.1144 27.3605C37.0064 27.3822 36.9068 27.4337 36.8268 27.5093C36.7467 27.5849 36.6896 27.6815 36.6618 27.788H36.6508C36.6128 27.9381 36.6356 28.0971 36.7142 28.2304C36.7929 28.3638 36.9211 28.4607 37.0708 28.5ZM42.3568 24.438H42.3798C42.5331 24.4277 42.6767 24.3591 42.7809 24.2462C42.8851 24.1332 42.942 23.9846 42.9398 23.831C42.9351 23.7168 42.897 23.6065 42.8301 23.5139C42.7633 23.4212 42.6707 23.3502 42.5638 23.3098C42.4569 23.2693 42.3406 23.2611 42.2291 23.2863C42.1176 23.3114 42.016 23.3687 41.9369 23.4511C41.8577 23.5335 41.8045 23.6374 41.7839 23.7498C41.7633 23.8622 41.7761 23.9781 41.8209 24.0833C41.8656 24.1884 41.9403 24.2781 42.0356 24.3411C42.1308 24.4042 42.2426 24.4379 42.3568 24.438ZM39.1358 25.664C39.2674 25.6618 39.3946 25.6165 39.4978 25.535C39.558 25.4877 39.6081 25.429 39.6454 25.3622C39.6827 25.2954 39.7063 25.2219 39.715 25.1459C39.7236 25.0699 39.7171 24.9929 39.6958 24.9195C39.6745 24.846 39.6388 24.7775 39.5908 24.718C39.5445 24.6566 39.4862 24.6052 39.4194 24.5671C39.3526 24.5289 39.2787 24.5048 39.2023 24.4961C39.1259 24.4874 39.0485 24.4943 38.9748 24.5165C38.9011 24.5386 38.8328 24.5755 38.7738 24.625C38.7137 24.6721 38.6636 24.7308 38.6263 24.7975C38.5891 24.8642 38.5654 24.9376 38.5568 25.0135C38.5481 25.0894 38.5546 25.1663 38.5759 25.2397C38.5972 25.3131 38.6329 25.3815 38.6808 25.441C38.7354 25.5096 38.8045 25.5651 38.8832 25.6037C38.9619 25.6423 39.0482 25.6629 39.1358 25.664Z" fill="#61C0FF"/>
</svg>
