<svg width="100" height="100" viewBox="0 0 100 100" fill="none" xmlns="http://www.w3.org/2000/svg">
<rect width="100" height="100" rx="24" fill="#EAEAFA" fill-opacity="0.8"/>
<path d="M27 52H24V54H27V52Z" fill="#8081E0"/>
<path d="M31 52H28V54H31V52Z" fill="#8081E0"/>
<path d="M35 52H32V54H35V52Z" fill="#8081E0"/>
<path d="M39 52H36V54H39V52Z" fill="#8081E0"/>
<path d="M43 52H40V54H43V52Z" fill="#8081E0"/>
<path d="M47 52H44V54H47V52Z" fill="#8081E0"/>
<path d="M51 52H48V54H51V52Z" fill="#8081E0"/>
<path d="M55 52H52V54H55V52Z" fill="#8081E0"/>
<path d="M59 52H56V54H59V52Z" fill="#8081E0"/>
<path d="M63 52H60V54H63V52Z" fill="#8081E0"/>
<path d="M67 52H64V54H67V52Z" fill="#8081E0"/>
<path d="M27 74H24V76H27V74Z" fill="#8081E0"/>
<path d="M31 74H28V76H31V74Z" fill="#8081E0"/>
<path d="M35 74H32V76H35V74Z" fill="#8081E0"/>
<path d="M39 74H36V76H39V74Z" fill="#8081E0"/>
<path d="M43 74H40V76H43V74Z" fill="#8081E0"/>
<path d="M47 74H44V76H47V74Z" fill="#8081E0"/>
<path d="M51 74H48V76H51V74Z" fill="#8081E0"/>
<path d="M55 74H52V76H55V74Z" fill="#8081E0"/>
<path d="M59 74H56V76H59V74Z" fill="#8081E0"/>
<path d="M63 74H60V76H63V74Z" fill="#8081E0"/>
<path d="M67 74H64V76H67V74Z" fill="#8081E0"/>
<path d="M51.2564 57.1301L39.2803 69.4756L40.7158 70.8682L52.692 58.5227L51.2564 57.1301Z" fill="#8081E0"/>
<path d="M43 63C43.5933 63 44.1734 62.8241 44.6667 62.4944C45.1601 62.1648 45.5446 61.6962 45.7716 61.148C45.9987 60.5999 46.0581 59.9967 45.9424 59.4147C45.8266 58.8328 45.5409 58.2982 45.1213 57.8787C44.7018 57.4591 44.1672 57.1734 43.5853 57.0576C43.0033 56.9419 42.4001 57.0013 41.8519 57.2284C41.3038 57.4554 40.8352 57.8399 40.5056 58.3333C40.1759 58.8266 40 59.4067 40 60C40 60.7957 40.3161 61.5587 40.8787 62.1213C41.4413 62.6839 42.2044 63 43 63ZM43 59C43.1978 59 43.3911 59.0586 43.5556 59.1685C43.72 59.2784 43.8482 59.4346 43.9239 59.6173C43.9996 59.8 44.0194 60.0011 43.9808 60.1951C43.9422 60.3891 43.847 60.5673 43.7071 60.7071C43.5673 60.847 43.3891 60.9422 43.1951 60.9808C43.0011 61.0194 42.8 60.9996 42.6173 60.9239C42.4346 60.8482 42.2784 60.72 42.1685 60.5556C42.0586 60.3911 42 60.1978 42 60C42 59.7348 42.1054 59.4804 42.2929 59.2929C42.4804 59.1054 42.7348 59 43 59ZM53 67C53 66.4067 52.8241 65.8266 52.4944 65.3333C52.1648 64.8399 51.6962 64.4554 51.148 64.2284C50.5999 64.0013 49.9967 63.9419 49.4147 64.0576C48.8328 64.1734 48.2982 64.4591 47.8787 64.8787C47.4591 65.2982 47.1734 65.8328 47.0576 66.4147C46.9419 66.9967 47.0013 67.5999 47.2284 68.148C47.4554 68.6962 47.8399 69.1648 48.3333 69.4944C48.8266 69.8241 49.4067 70 50 70C50.7956 70 51.5587 69.6839 52.1213 69.1213C52.6839 68.5587 53 67.7957 53 67ZM49 67C49 66.8022 49.0586 66.6089 49.1685 66.4444C49.2784 66.28 49.4346 66.1518 49.6173 66.0761C49.8 66.0004 50.0011 65.9806 50.1951 66.0192C50.3891 66.0578 50.5673 66.153 50.7071 66.2929C50.847 66.4327 50.9422 66.6109 50.9808 66.8049C51.0194 66.9989 50.9996 67.2 50.9239 67.3827C50.8482 67.5654 50.72 67.7216 50.5556 67.8315C50.3911 67.9414 50.1978 68 50 68C49.7348 68 49.4804 67.8946 49.2929 67.7071C49.1054 67.5196 49 67.2652 49 67Z" fill="#8081E0"/>
<path d="M35 44H32V46H35V44Z" fill="#8081E0"/>
<path d="M39 44H36V46H39V44Z" fill="#8081E0"/>
<path d="M43 44H40V46H43V44Z" fill="#8081E0"/>
<path d="M47 44H44V46H47V44Z" fill="#8081E0"/>
<path d="M51 44H48V46H51V44Z" fill="#8081E0"/>
<path d="M55 44H52V46H55V44Z" fill="#8081E0"/>
<path d="M59 44H56V46H59V44Z" fill="#8081E0"/>
<path d="M63 44H60V46H63V44Z" fill="#8081E0"/>
<path d="M78.0003 32.69C78.0003 32.46 78.0003 32.23 78.0003 32C78.0107 28.9834 76.8846 26.0734 74.8462 23.8496C72.8077 21.6258 70.0065 20.2514 67.0003 20H66.9003C66.1784 19.9349 65.4521 19.9349 64.7303 20C61.5966 20.3234 58.7193 21.8771 56.7303 24.32C54.8937 26.5373 53.9155 29.341 53.9743 32.2195C54.033 35.0981 55.1248 37.8595 57.0503 40H29.0002C28.735 40 28.4807 40.1054 28.2931 40.2929C28.1056 40.4805 28.0002 40.7348 28.0002 41V48H23.4302L24.8203 47C24.4517 46.493 24.1176 45.9618 23.8203 45.41L22.0602 46.35C22.3647 46.9106 22.6985 47.4547 23.0602 47.98H21.0002C20.735 47.98 20.4807 48.0854 20.2931 48.2729C20.1056 48.4605 20.0002 48.7148 20.0002 48.98V59.1C19.9969 59.2511 20.0278 59.4009 20.0906 59.5383C20.1534 59.6756 20.2465 59.797 20.363 59.8932C20.4794 59.9894 20.6161 60.058 20.7629 60.0939C20.9096 60.1297 21.0626 60.1318 21.2102 60.1C21.4694 60.0394 21.7342 60.0059 22.0002 60C23.0611 60 24.0785 60.4215 24.8287 61.1716C25.5788 61.9218 26.0002 62.9392 26.0002 64C26.0002 65.0609 25.5788 66.0783 24.8287 66.8285C24.0785 67.5786 23.0611 68 22.0002 68C21.7349 68.0007 21.4701 67.9739 21.2102 67.92C21.0642 67.8887 20.9131 67.8904 20.7678 67.9251C20.6226 67.9598 20.4869 68.0266 20.3709 68.1206C20.2548 68.2146 20.1613 68.3334 20.0972 68.4683C20.033 68.6032 19.9999 68.7507 20.0002 68.9V79C20.0002 79.2653 20.1056 79.5196 20.2931 79.7071C20.4807 79.8947 20.735 80 21.0002 80H71.0003C71.2655 80 71.5198 79.8947 71.7074 79.7071C71.8949 79.5196 72.0003 79.2653 72.0003 79V72H79.0003C79.2655 72 79.5198 71.8947 79.7074 71.7071C79.8949 71.5196 80.0003 71.2653 80.0003 71V60.9C80.0036 60.749 79.9727 60.5992 79.9099 60.4618C79.8471 60.3244 79.754 60.2031 79.6375 60.1069C79.5211 60.0106 79.3844 59.942 79.2376 59.9062C79.0909 59.8704 78.9379 59.8683 78.7903 59.9C78.5311 59.9607 78.2663 59.9942 78.0003 60C76.9394 60 75.922 59.5786 75.1718 58.8285C74.4217 58.0783 74.0003 57.0609 74.0003 56C74.0003 54.9392 74.4217 53.9218 75.1718 53.1716C75.922 52.4215 76.9394 52 78.0003 52C78.2656 51.9993 78.5304 52.0261 78.7903 52.08C78.9379 52.1118 79.0909 52.1097 79.2376 52.0739C79.3844 52.038 79.5211 51.9694 79.6375 51.8732C79.754 51.777 79.8471 51.6556 79.9099 51.5183C79.9727 51.3809 80.0036 51.2311 80.0003 51.08V41C79.9985 40.8622 79.9683 40.7262 79.9115 40.6005C79.8548 40.4749 79.7726 40.3624 79.6702 40.27C79.8875 39.5329 79.9986 38.7685 80.0003 38C80.0104 36.0441 79.2982 34.1533 78.0003 32.69ZM72.0003 44C71.4527 44.002 70.9075 43.9279 70.3803 43.78C69.1176 43.4284 68.0049 42.6729 67.2121 41.6292C66.4193 40.5854 65.9901 39.3107 65.9901 38C65.9901 36.6893 66.4193 35.4147 67.2121 34.3709C68.0049 33.3272 69.1176 32.5717 70.3803 32.22C70.9071 32.0705 71.4526 31.9964 72.0003 32C73.5915 32 75.1177 32.6322 76.2429 33.7574C77.3681 34.8826 78.0003 36.4087 78.0003 38C78.0003 39.5913 77.3681 41.1175 76.2429 42.2427C75.1177 43.3679 73.5915 44 72.0003 44ZM56.0003 33H58.8803C58.9942 34.2569 59.2698 35.4937 59.7003 36.68C59.0605 37.0388 58.4517 37.4502 57.8803 37.91C56.8447 36.4651 56.213 34.7703 56.0503 33H56.0003ZM64.3303 40.37C63.532 39.5829 62.8576 38.6793 62.3303 37.69C62.8772 37.4925 63.439 37.3387 64.0103 37.23C64.0103 37.49 63.9503 37.74 63.9503 38C63.9706 38.8075 64.1157 39.6069 64.3803 40.37H64.3303ZM67.0003 22.4C68.192 23.4684 69.1488 24.7726 69.8103 26.23C68.9083 26.5817 67.9632 26.8105 67.0003 26.91V22.4ZM65.0003 27C63.9791 26.9398 62.9703 26.7448 62.0003 26.42C62.6776 24.8271 63.7026 23.4057 65.0003 22.26V27ZM68.1803 31H67.0003V28.92C68.202 28.8071 69.3828 28.5313 70.5103 28.1C70.6954 28.7553 70.8291 29.424 70.9103 30.1C70.5714 30.1453 70.2369 30.2189 69.9103 30.32C69.3077 30.4745 68.7267 30.7029 68.1803 31ZM71.6103 25.37C71.2116 24.503 70.7258 23.6787 70.1603 22.91C71.098 23.3391 71.9647 23.909 72.7303 24.6C72.3713 24.8771 71.9974 25.1341 71.6103 25.37ZM60.1103 25.61C59.7255 25.3935 59.3548 25.153 59.0003 24.89C59.7492 24.1254 60.6171 23.4871 61.5703 23C60.9903 23.8145 60.5007 24.6896 60.1103 25.61ZM61.2903 28.28C62.4879 28.6898 63.7363 28.9321 65.0003 29V31H60.8803C60.9203 30.0814 61.0578 29.1697 61.2903 28.28ZM65.0003 33V34.15C64.8316 34.4747 64.6814 34.8085 64.5503 35.15C63.5257 35.2784 62.5192 35.5234 61.5503 35.88C61.2362 34.9469 61.0315 33.9804 60.9403 33H65.0003ZM59.2803 39.4C59.6818 39.0718 60.11 38.7774 60.5603 38.52C61.1001 39.5499 61.7725 40.5047 62.5603 41.36C61.3511 40.9236 60.2374 40.2581 59.2803 39.4ZM76.0003 31.05C75.0784 30.5167 74.0577 30.1764 73.0003 30.05C72.8981 29.1009 72.7073 28.1635 72.4303 27.25C73.0368 26.9113 73.6124 26.5197 74.1503 26.08C75.2061 27.5384 75.8455 29.2563 76.0003 31.05ZM57.6903 26.44C58.2384 26.849 58.8205 27.2103 59.4303 27.52C59.1109 28.6544 58.9262 29.8225 58.8803 31H56.0503C56.2091 29.3673 56.7728 27.7999 57.6903 26.44ZM70.0003 78H22.0002V70C23.5915 70 25.1177 69.3679 26.2429 68.2427C27.3681 67.1175 28.0002 65.5913 28.0002 64C28.0002 62.4087 27.3681 60.8826 26.2429 59.7574C25.1177 58.6322 23.5915 58 22.0002 58V50H70.0003V58C68.409 58 66.8828 58.6322 65.7576 59.7574C64.6324 60.8826 64.0003 62.4087 64.0003 64C64.0003 65.5913 64.6324 67.1175 65.7576 68.2427C66.8828 69.3679 68.409 70 70.0003 70V78ZM78.0003 50C76.409 50 74.8828 50.6322 73.7576 51.7574C72.6324 52.8826 72.0003 54.4087 72.0003 56C72.0003 57.5913 72.6324 59.1175 73.7576 60.2427C74.8828 61.3679 76.409 62 78.0003 62V70H72.0003V68.9C72.0036 68.749 71.9727 68.5992 71.9099 68.4618C71.8471 68.3244 71.754 68.2031 71.6375 68.1069C71.5211 68.0106 71.3844 67.942 71.2376 67.9062C71.0909 67.8704 70.9379 67.8683 70.7903 67.9C70.5311 67.9607 70.2663 67.9942 70.0003 68C68.9394 68 67.922 67.5786 67.1718 66.8285C66.4217 66.0783 66.0003 65.0609 66.0003 64C66.0003 62.9392 66.4217 61.9218 67.1718 61.1716C67.922 60.4215 68.9394 60 70.0003 60C70.2656 59.9993 70.5304 60.0261 70.7903 60.08C70.9379 60.1118 71.0909 60.1097 71.2376 60.0739C71.3844 60.038 71.5211 59.9694 71.6375 59.8732C71.754 59.777 71.8471 59.6556 71.9099 59.5183C71.9727 59.3809 72.0036 59.2311 72.0003 59.08V49C72.0003 48.7348 71.8949 48.4805 71.7074 48.2929C71.5198 48.1054 71.2655 48 71.0003 48H30.0002V42H59.3903C61.3515 43.2968 63.6491 43.992 66.0003 44H66.7003C67.6034 44.811 68.6813 45.403 69.8503 45.73C70.5507 45.9203 71.2745 46.0112 72.0003 46C73.1369 45.9974 74.2599 45.7525 75.2945 45.2817C76.3291 44.811 77.2515 44.1252 78.0003 43.27V50Z" fill="#8081E0"/>
<path d="M71.42 38.46L69.7 36.78L68.3 38.22L70.87 40.72C71.0579 40.9011 71.3091 41.0016 71.57 41H71.67C71.8157 40.9861 71.9567 40.9404 72.0828 40.8661C72.2089 40.7918 72.3172 40.6907 72.4 40.57L75.82 35.57L74.18 34.43L71.42 38.46ZM38.71 22H39.25L39.31 20H38.73C38.25 20 37.73 20 37.2 20.06L37.36 22.06C37.81 22 38.26 22 38.71 22ZM31.89 23.43L31.09 21.6C30.4434 21.8825 29.8125 22.1996 29.2 22.55L30.2 24.28C30.7479 23.9669 31.312 23.6832 31.89 23.43ZM47.42 22.1C46.7935 21.7769 46.1491 21.4898 45.49 21.24L44.78 23.11C45.3691 23.3298 45.9436 23.587 46.5 23.88L47.42 22.1ZM43.48 20.6C42.7975 20.4278 42.1066 20.291 41.41 20.19L41.13 22.19C41.7596 22.2703 42.384 22.3872 43 22.54L43.48 20.6ZM53.77 27.59C53.3574 27.0159 52.9134 26.4651 52.44 25.94L51 27.29C51.4209 27.7537 51.8149 28.2412 52.18 28.75L53.77 27.59ZM50.92 24.47C50.3842 24.0094 49.8233 23.5787 49.24 23.18L48.12 24.84C48.6381 25.1983 49.1355 25.5856 49.61 26L50.92 24.47ZM28.62 25.31L27.44 23.7C26.8737 24.1037 26.3296 24.5377 25.81 25L27.17 26.51C27.6284 26.0808 28.1126 25.68 28.62 25.31ZM35.49 22.31L35.11 20.31C34.435 20.4496 33.7675 20.6232 33.11 20.83L33.71 22.74C34.2948 22.5635 34.8891 22.4199 35.49 22.31ZM22.44 34.5L20.5 34C20.3338 34.6889 20.207 35.3867 20.12 36.09L22.12 36.33C22.1917 35.7144 22.2986 35.1034 22.44 34.5ZM25.86 27.87L24.34 26.56C23.8819 27.0953 23.4545 27.6562 23.06 28.24L24.72 29.36C25.0685 28.84 25.4493 28.3424 25.86 27.87ZM20.53 42.43C20.7036 43.1099 20.9207 43.778 21.18 44.43L23 43.72C22.771 43.1399 22.5806 42.5452 22.43 41.94L20.53 42.43ZM22.12 40.09C22.0402 39.4699 22.0001 38.8453 22 38.22H20C20.0015 38.9289 20.0482 39.637 20.14 40.34L22.12 40.09ZM23.76 31L22 30.06C21.6719 30.6903 21.3782 31.338 21.12 32L23 32.7C23.2149 32.1169 23.4688 31.5489 23.76 31Z" fill="#8081E0"/>
</svg>
