   <svg width="128" height="24" viewBox="0 0 128 24" fill="none" xmlns="http://www.w3.org/2000/svg">
<path d="M17.9184 14.32C17.6594 14.571 17.5404 14.934 17.5994 15.29L18.4884 20.21C18.5634 20.627 18.3874 21.049 18.0384 21.29C17.6964 21.54 17.2414 21.57 16.8684 21.37L12.4394 19.06C12.2854 18.978 12.1144 18.934 11.9394 18.929H11.6684C11.5744 18.943 11.4824 18.973 11.3984 19.019L6.96839 21.34C6.74939 21.45 6.50139 21.489 6.25839 21.45C5.66639 21.338 5.27139 20.774 5.36839 20.179L6.25839 15.259C6.31739 14.9 6.19839 14.535 5.93939 14.28L2.32839 10.78C2.02639 10.487 1.92139 10.047 2.05939 9.65C2.19339 9.254 2.53539 8.965 2.94839 8.9L7.91839 8.179C8.29639 8.14 8.62839 7.91 8.79839 7.57L10.9884 3.08C11.0404 2.98 11.1074 2.888 11.1884 2.81L11.2784 2.74C11.3254 2.688 11.3794 2.645 11.4394 2.61L11.5484 2.57L11.7184 2.5H12.1394C12.5154 2.539 12.8464 2.764 13.0194 3.1L15.2384 7.57C15.3984 7.897 15.7094 8.124 16.0684 8.179L21.0384 8.9C21.4584 8.96 21.8094 9.25 21.9484 9.65C22.0794 10.051 21.9664 10.491 21.6584 10.78L17.9184 14.32Z" fill="#FBBF24"/>
<path d="M43.9184 14.32C43.6594 14.571 43.5404 14.934 43.5994 15.29L44.4884 20.21C44.5634 20.627 44.3874 21.049 44.0384 21.29C43.6964 21.54 43.2414 21.57 42.8684 21.37L38.4394 19.06C38.2854 18.978 38.1144 18.934 37.9394 18.929H37.6684C37.5744 18.943 37.4824 18.973 37.3984 19.019L32.9684 21.34C32.7494 21.45 32.5014 21.489 32.2584 21.45C31.6664 21.338 31.2714 20.774 31.3684 20.179L32.2584 15.259C32.3174 14.9 32.1984 14.535 31.9394 14.28L28.3284 10.78C28.0264 10.487 27.9214 10.047 28.0594 9.65C28.1934 9.254 28.5354 8.965 28.9484 8.9L33.9184 8.179C34.2964 8.14 34.6284 7.91 34.7984 7.57L36.9884 3.08C37.0404 2.98 37.1074 2.888 37.1884 2.81L37.2784 2.74C37.3254 2.688 37.3794 2.645 37.4394 2.61L37.5484 2.57L37.7184 2.5H38.1394C38.5154 2.539 38.8464 2.764 39.0194 3.1L41.2384 7.57C41.3984 7.897 41.7094 8.124 42.0684 8.179L47.0384 8.9C47.4584 8.96 47.8094 9.25 47.9484 9.65C48.0794 10.051 47.9664 10.491 47.6584 10.78L43.9184 14.32Z" fill="#FBBF24"/>
<path d="M69.9184 14.32C69.6594 14.571 69.5404 14.934 69.5994 15.29L70.4884 20.21C70.5634 20.627 70.3874 21.049 70.0384 21.29C69.6964 21.54 69.2414 21.57 68.8684 21.37L64.4394 19.06C64.2854 18.978 64.1144 18.934 63.9394 18.929H63.6684C63.5744 18.943 63.4824 18.973 63.3984 19.019L58.9684 21.34C58.7494 21.45 58.5014 21.489 58.2584 21.45C57.6664 21.338 57.2714 20.774 57.3684 20.179L58.2584 15.259C58.3174 14.9 58.1984 14.535 57.9394 14.28L54.3284 10.78C54.0264 10.487 53.9214 10.047 54.0594 9.65C54.1934 9.254 54.5354 8.965 54.9484 8.9L59.9184 8.179C60.2964 8.14 60.6284 7.91 60.7984 7.57L62.9884 3.08C63.0404 2.98 63.1074 2.888 63.1884 2.81L63.2784 2.74C63.3254 2.688 63.3794 2.645 63.4394 2.61L63.5484 2.57L63.7184 2.5H64.1394C64.5154 2.539 64.8464 2.764 65.0194 3.1L67.2384 7.57C67.3984 7.897 67.7094 8.124 68.0684 8.179L73.0384 8.9C73.4584 8.96 73.8094 9.25 73.9484 9.65C74.0794 10.051 73.9664 10.491 73.6584 10.78L69.9184 14.32Z" fill="#FBBF24"/>
<path d="M95.9189 14.32C95.6599 14.571 95.5409 14.934 95.5999 15.29L96.4889 20.21C96.5639 20.627 96.3879 21.049 96.0389 21.29C95.6969 21.54 95.2419 21.57 94.8689 21.37L90.4399 19.06C90.2859 18.978 90.1149 18.934 89.9399 18.929H89.6689C89.5749 18.943 89.4829 18.973 89.3989 19.019L84.9689 21.34C84.7499 21.45 84.5019 21.489 84.2589 21.45C83.6669 21.338 83.2719 20.774 83.3689 20.179L84.2589 15.259C84.3179 14.9 84.1989 14.535 83.9399 14.28L80.3289 10.78C80.0269 10.487 79.9219 10.047 80.0599 9.65C80.1939 9.254 80.5359 8.965 80.9489 8.9L85.9189 8.179C86.2969 8.14 86.6289 7.91 86.7989 7.57L88.9889 3.08C89.0409 2.98 89.1079 2.888 89.1889 2.81L89.2789 2.74C89.3259 2.688 89.3799 2.645 89.4399 2.61L89.5489 2.57L89.7189 2.5H90.1399C90.5159 2.539 90.8469 2.764 91.0199 3.1L93.2389 7.57C93.3989 7.897 93.7099 8.124 94.0689 8.179L99.0389 8.9C99.4589 8.96 99.8099 9.25 99.9489 9.65C100.08 10.051 99.9669 10.491 99.6589 10.78L95.9189 14.32Z" fill="#FBBF24"/>
<path d="M121.919 14.32C121.66 14.571 121.541 14.934 121.6 15.29L122.489 20.21C122.564 20.627 122.388 21.049 122.039 21.29C121.697 21.54 121.242 21.57 120.869 21.37L116.44 19.06C116.286 18.978 116.115 18.934 115.94 18.929H115.669C115.575 18.943 115.483 18.973 115.399 19.019L110.969 21.34C110.75 21.45 110.502 21.489 110.259 21.45C109.667 21.338 109.272 20.774 109.369 20.179L110.259 15.259C110.318 14.9 110.199 14.535 109.94 14.28L106.329 10.78C106.027 10.487 105.922 10.047 106.06 9.65C106.194 9.254 106.536 8.965 106.949 8.9L111.919 8.179C112.297 8.14 112.629 7.91 112.799 7.57L114.989 3.08C115.041 2.98 115.108 2.888 115.189 2.81L115.279 2.74C115.326 2.688 115.38 2.645 115.44 2.61L115.549 2.57L115.719 2.5H116.14C116.516 2.539 116.847 2.764 117.02 3.1L119.239 7.57C119.399 7.897 119.71 8.124 120.069 8.179L125.039 8.9C125.459 8.96 125.81 9.25 125.949 9.65C126.08 10.051 125.967 10.491 125.659 10.78L121.919 14.32Z" fill="#FBBF24"/>
</svg>
