<svg width="100" height="100" viewBox="0 0 100 100" fill="none" xmlns="http://www.w3.org/2000/svg">
<rect width="100" height="100" rx="24" fill="#FFF2EB" fill-opacity="0.8"/>
<path d="M50 30C49.4067 30 48.8266 29.8241 48.3333 29.4944C47.8399 29.1648 47.4554 28.6962 47.2284 28.1481C47.0013 27.5999 46.9419 26.9967 47.0576 26.4147C47.1734 25.8328 47.4591 25.2982 47.8787 24.8787C48.2982 24.4591 48.8328 24.1734 49.4147 24.0576C49.9967 23.9419 50.5999 24.0013 51.148 24.2284C51.6962 24.4554 52.1648 24.8399 52.4944 25.3333C52.8241 25.8266 53 26.4067 53 27C52.9991 27.7954 52.6828 28.5579 52.1204 29.1204C51.5579 29.6828 50.7954 29.9991 50 30ZM50 26C49.8022 26 49.6089 26.0587 49.4444 26.1685C49.28 26.2784 49.1518 26.4346 49.0761 26.6173C49.0004 26.8 48.9806 27.0011 49.0192 27.1951C49.0578 27.3891 49.153 27.5673 49.2929 27.7071C49.4327 27.847 49.6109 27.9422 49.8049 27.9808C49.9989 28.0194 50.2 27.9996 50.3827 27.9239C50.5654 27.8482 50.7216 27.72 50.8315 27.5556C50.9414 27.3911 51 27.1978 51 27C50.9997 26.7349 50.8942 26.4807 50.7067 26.2933C50.5193 26.1058 50.2651 26.0003 50 26Z" fill="#FF8E50"/>
<path d="M68 56.9903H63.8157C63.6103 56.4071 63.2293 55.9017 62.7252 55.5436C62.221 55.1855 61.6184 54.9922 61 54.9903C59.5977 54.991 57.6972 54.762 56.75 56.027C56.2888 55.9823 55.4742 55.989 55 55.9903V53.1487C56.9458 52.2789 58.5705 50.822 59.6465 48.9822C60.7225 47.1424 61.1957 45.012 60.9999 42.8897C62.0338 42.669 62.9714 42.127 63.6786 41.3412C64.3858 40.5554 64.8265 39.5661 64.9374 38.5147C65.0484 37.4633 64.824 36.4038 64.2964 35.4877C63.7688 34.5716 62.9649 33.8458 61.9999 33.4141L62 29.9903C61.9972 27.6042 61.0481 25.3167 59.3609 23.6294C57.6737 21.9422 55.3861 20.9931 53 20.9903H51C50.9949 20.7285 50.8873 20.4791 50.7003 20.2957C50.5133 20.1124 50.2619 20.0096 50 20.0096C49.7381 20.0096 49.4867 20.1124 49.2997 20.2957C49.1127 20.4791 49.0051 20.7285 49 20.9903H47C44.6139 20.9931 42.3263 21.9422 40.6391 23.6294C38.9519 25.3167 38.0028 27.6042 38 29.9903V33.4142C37.035 33.8459 36.2312 34.5717 35.7036 35.4878C35.176 36.4039 34.9517 37.4634 35.0626 38.5148C35.1736 39.5661 35.6142 40.5554 36.3214 41.3412C37.0286 42.127 37.9662 42.669 39.0001 42.8897C38.8041 45.0121 39.2773 47.1426 40.3533 48.9825C41.4293 50.8224 43.0542 52.2793 45.0001 53.149L45 55.9903C44.522 55.9891 43.7147 55.9823 43.25 56.027C42.3034 54.7622 40.4011 54.9908 38.9999 54.9905C38.3816 54.9923 37.7789 55.1856 37.2748 55.5436C36.7706 55.9017 36.3897 56.4071 36.1843 56.9903H32C30.9395 56.9916 29.9228 57.4134 29.1729 58.1633C28.423 58.9131 28.0012 59.9298 28 60.9903V64.9903C28.0027 65.8758 28.2993 66.7352 28.8433 67.4338C29.3873 68.1324 30.1479 68.6306 31.0057 68.8501C31.0053 68.8974 31 68.9427 31 68.9903V78.9903C31 79.2556 31.1054 79.5099 31.2929 79.6974C31.4804 79.885 31.7348 79.9903 32 79.9903H68C68.2652 79.9903 68.5196 79.885 68.7071 79.6974C68.8946 79.5099 69 79.2556 69 78.9903V68.9903C69 68.9422 68.9948 68.8978 68.9944 68.8501C69.8522 68.6306 70.6128 68.1324 71.1568 67.4338C71.7008 66.7352 71.9974 65.8758 72 64.9903V60.9903C71.9988 59.9298 71.577 58.9131 70.8271 58.1633C70.0772 57.4134 69.0605 56.9916 68 56.9903ZM40 29.9903C40.0021 28.1345 40.7402 26.3552 42.0525 25.0429C43.3649 23.7306 45.1441 22.9924 47 22.9903H53C54.8559 22.9924 56.6351 23.7306 57.9474 25.0429C59.2598 26.3552 59.9979 28.1345 60 29.9903V32.9183C53.5769 30.3698 46.4232 30.3697 40 32.918V29.9903ZM59 34.6666V38.5348C53.1748 36.4856 46.8247 36.4863 41 38.5368V34.6666C46.7936 32.441 53.2064 32.441 59 34.6666ZM41 43.9903V41.9903C41 41.7251 40.8946 41.4708 40.7071 41.2832C40.5196 41.0957 40.2652 40.9903 40 40.9903C39.2982 40.9827 38.6213 40.7293 38.0871 40.2741C37.5529 39.819 37.1952 39.1909 37.0763 38.4992C36.9574 37.8075 37.0847 37.0961 37.4362 36.4886C37.7877 35.8812 38.3411 35.4162 39 35.1746V38.5367C39.0022 38.8549 39.0799 39.168 39.2267 39.4503C39.3736 39.7325 39.5855 39.9759 39.8448 40.1602C40.1042 40.3445 40.4036 40.4646 40.7184 40.5106C41.0333 40.5565 41.3546 40.527 41.6558 40.4244C47.0558 38.5211 52.9442 38.5211 58.3442 40.4244C58.6454 40.5269 58.9667 40.5564 59.2815 40.5104C59.5963 40.4644 59.8957 40.3443 60.155 40.16C60.4143 39.9757 60.6262 39.7324 60.7731 39.4502C60.92 39.1679 60.9977 38.8549 60.9999 38.5367L61 35.1746C61.6591 35.4161 62.2126 35.881 62.5642 36.4885C62.9157 37.096 63.0432 37.8076 62.9242 38.4994C62.8052 39.1911 62.4474 39.8192 61.9131 40.2744C61.3788 40.7296 60.7018 40.9829 59.9999 40.9903C59.7347 40.9904 59.4804 41.0957 59.2929 41.2833C59.1053 41.4708 59 41.7251 59 41.9903V43.9903C58.9894 46.1088 58.1431 48.1375 56.6451 49.6355C55.1471 51.1335 53.1184 51.9798 50.9999 51.9903H49C46.8815 51.9798 44.8528 51.1335 43.3548 49.6355C41.8568 48.1375 41.0106 46.1088 41 43.9903ZM53 53.7887V57.9903C52.9995 58.5206 52.7886 59.029 52.4136 59.404C52.0387 59.7789 51.5303 59.9898 51 59.9903H49C48.4697 59.9898 47.9613 59.7789 47.5864 59.404C47.2114 59.029 47.0005 58.5206 47 57.9903V53.7887C48.9884 54.0931 51.0116 54.0931 53 53.7887ZM31.1941 66.8177C30.8395 66.6615 30.5378 66.4057 30.3258 66.0813C30.1138 65.7569 30.0006 65.3779 30 64.9903V60.9903C30.0005 60.4601 30.2114 59.9517 30.5864 59.5767C30.9613 59.2018 31.4697 58.9909 32 58.9903H35.7177C33.3187 60.9715 31.713 63.75 31.1941 66.8177V66.8177ZM39 77.9903H33V68.9903C32.9998 66.1868 34.0734 63.4896 36 61.4529V72.9903C36.0009 73.7857 36.3172 74.5483 36.8796 75.1107C37.4421 75.6731 38.2046 75.9895 39 75.9903V77.9903ZM40 71.9903C39.7348 71.9903 39.4804 72.0957 39.2929 72.2832C39.1054 72.4708 39 72.7251 39 72.9903V73.9903C38.7349 73.99 38.4807 73.8845 38.2933 73.6971C38.1058 73.5096 38.0003 73.2555 38 72.9903V57.9903C38.0003 57.7252 38.1058 57.4711 38.2933 57.2836C38.4807 57.0962 38.7349 56.9907 39 56.9903H41C41.2651 56.9907 41.5193 57.0962 41.7067 57.2836C41.8942 57.4711 41.9997 57.7252 42 57.9903V64.9903H41C40.7346 64.992 40.4806 65.0986 40.2936 65.2869C40.1065 65.4751 40.0015 65.7298 40.0015 65.9952C40.0015 66.2606 40.1065 66.5152 40.2936 66.7034C40.4806 66.8917 40.7346 66.9983 41 67H42V72.9903C41.9997 73.2555 41.8942 73.5096 41.7067 73.6971C41.5193 73.8845 41.2651 73.99 41 73.9903V72.9903C41 72.7251 40.8946 72.4708 40.7071 72.2832C40.5196 72.0957 40.2652 71.9903 40 71.9903ZM59 77.9903H41V75.9903C41.7954 75.9895 42.5579 75.6731 43.1204 75.1107C43.6828 74.5483 43.9991 73.7857 44 72.9903V57.9903H45C45.0012 59.0508 45.423 60.0675 46.1729 60.8174C46.9228 61.5673 47.9395 61.9891 49 61.9903H51C52.0605 61.9891 53.0772 61.5673 53.8271 60.8174C54.577 60.0675 54.9988 59.0508 55 57.9903H56V72.9903C56.0009 73.7857 56.3172 74.5483 56.8796 75.1107C57.4421 75.6731 58.2046 75.9895 59 75.9903V77.9903ZM60 71.9903C59.7348 71.9903 59.4804 72.0957 59.2929 72.2832C59.1054 72.4708 59 72.7251 59 72.9903V73.9903C58.7349 73.99 58.4807 73.8845 58.2933 73.6971C58.1058 73.5096 58.0003 73.2555 58 72.9903V67H59C59.2654 66.9983 59.5194 66.8917 59.7064 66.7034C59.8935 66.5152 59.9985 66.2606 59.9985 65.9952C59.9985 65.7298 59.8935 65.4751 59.7064 65.2869C59.5194 65.0986 59.2654 64.992 59 64.9903H58V57.9903C58.0003 57.7252 58.1058 57.4711 58.2933 57.2836C58.4807 57.0962 58.7349 56.9907 59 56.9903H61C61.2651 56.9907 61.5193 57.0962 61.7067 57.2836C61.8942 57.4711 61.9997 57.7252 62 57.9903V72.9903C61.9997 73.2555 61.8942 73.5096 61.7067 73.6971C61.5193 73.8845 61.2651 73.99 61 73.9903V72.9903C61 72.7251 60.8946 72.4708 60.7071 72.2832C60.5196 72.0957 60.2652 71.9903 60 71.9903ZM67 77.9903H61V75.9903C61.7954 75.9895 62.5579 75.6731 63.1204 75.1107C63.6828 74.5483 63.9991 73.7857 64 72.9903V61.4529C65.9262 63.4899 66.9996 66.1869 67 68.9903V77.9903ZM70 64.9903C69.9993 65.377 69.8858 65.755 69.6735 66.0782C69.4612 66.4013 69.1592 66.6555 68.8046 66.8097C68.284 63.7451 66.6789 60.9699 64.2823 58.9903H68C68.5303 58.9909 69.0387 59.2018 69.4136 59.5767C69.7886 59.9517 69.9995 60.4601 70 60.9903V64.9903Z" fill="#FF8E50"/>
<path d="M48 65H46C45.7348 65 45.4804 65.1054 45.2929 65.2929C45.1054 65.4804 45 65.7348 45 66C45 66.2652 45.1054 66.5196 45.2929 66.7071C45.4804 66.8946 45.7348 67 46 67H48C48.2618 66.9949 48.5112 66.8873 48.6946 66.7003C48.878 66.5133 48.9807 66.2619 48.9807 66C48.9807 65.7381 48.878 65.4867 48.6946 65.2997C48.5112 65.1127 48.2618 65.0051 48 65ZM54 65H52C51.7348 65 51.4804 65.1054 51.2929 65.2929C51.1054 65.4804 51 65.7348 51 66C51 66.2652 51.1054 66.5196 51.2929 66.7071C51.4804 66.8946 51.7348 67 52 67H54C54.2618 66.9949 54.5112 66.8873 54.6946 66.7003C54.878 66.5133 54.9807 66.2619 54.9807 66C54.9807 65.7381 54.878 65.4867 54.6946 65.2997C54.5112 65.1127 54.2618 65.0051 54 65Z" fill="#FF8E50"/>
</svg>
