<svg width="37" height="30" viewBox="0 0 37 30" fill="none" xmlns="http://www.w3.org/2000/svg">
<path d="M0.574534 30C0.191512 28.8764 0 27.9775 0 27.3034C0 26.5543 0.114907 25.618 0.34472 24.4944C5.47723 24.4944 8.04348 21.9101 8.04348 16.7416C8.04348 14.8689 7.04762 13.8202 5.0559 13.5955C2.14493 13.3708 0.689441 11.5356 0.689441 8.08989C0.689441 5.46817 1.30228 3.48315 2.52795 2.13483C3.83023 0.71161 6.12836 0 9.42236 0C13.942 0 16.2019 2.99625 16.2019 8.98876C16.2019 14.9813 14.9762 20 12.5248 24.0449C10.0735 28.015 6.09006 30 0.574534 30ZM21.3727 30C20.9896 28.8764 20.7981 27.9775 20.7981 27.3034C20.7981 26.5543 20.913 25.618 21.1429 24.4944C26.2754 24.4944 28.8416 21.9101 28.8416 16.7416C28.8416 14.8689 27.8458 13.8202 25.854 13.5955C22.9431 13.3708 21.4876 11.5356 21.4876 8.08989C21.4876 5.46817 22.1004 3.48315 23.3261 2.13483C24.6284 0.71161 26.9265 0 30.2205 0C34.7402 0 37 2.99625 37 8.98876C37 14.9813 35.7743 20 33.323 24.0449C30.8716 28.015 26.8882 30 21.3727 30Z" fill="#64C1FF"/>
</svg>
